<svg xmlns="http://www.w3.org/2000/svg" viewBox="0 0 180 56" width="180" height="56" role="img" aria-label="OpsTrack by Xceler8 — O-Card — folded task card with an O whose gap releases a check (for purple backgrounds)">
  <title>OpsTrack by Xceler8 — O-Card — folded task card with an O whose gap releases a check (for purple backgrounds)</title>
  <g transform="translate(4 8) scale(1.25)"><path d="M9 2 H21 L30 11 V23 a7 7 0 0 1 -7 7 H9 a7 7 0 0 1 -7 -7 V9 a7 7 0 0 1 7 -7 z" fill="#ffffff"/><path d="M21 2 V8 a3 3 0 0 0 3 3 H30 z" fill="#c7c8ff"/><path d="M22.34 15.94 A7.5 7.5 0 1 1 16.56 10.16" fill="none" stroke="#5355e0" stroke-width="3.5" stroke-linecap="round"/><path d="M11.5 17 L14.5 20 L21.5 12.5" fill="none" stroke="#8789ff" stroke-width="3.5" stroke-linecap="round" stroke-linejoin="round"/></g><text x="54" y="29" font-family="'Public Sans', -apple-system, 'Segoe UI', Roboto, Arial, sans-serif" font-size="23" font-weight="700" letter-spacing="-0.4"><tspan fill="#ffffff">Ops</tspan><tspan fill="#c7c8ff">Track</tspan></text><text x="54.5" y="45" font-family="'Public Sans', -apple-system, 'Segoe UI', Roboto, Arial, sans-serif" font-size="10" font-weight="500" letter-spacing="0.1" fill="#dcdcff">by <tspan font-weight="700" fill="#c7c8ff">Jomerson &amp; Grok</tspan></text>
</svg>
